<svg xmlns="http://www.w3.org/2000/svg" xmlns:xlink="http://www.w3.org/1999/xlink" viewBox="0 0 1326.2 980.01"><defs><style>.cls-1{fill:none;clip-rule:evenodd;}.cls-2{clip-path:url(#clip-path);}.cls-3{fill:url(#linear-gradient);}</style><clipPath id="clip-path" transform="translate(0 10.73)"><path class="cls-1" d="M154.14,355.71H290a14,14,0,0,1,14,14h0a14,14,0,0,1-14,14H154.14a14,14,0,0,1-14-14h0a14,14,0,0,1,14-14M96.53,417.77H291.46a14,14,0,0,1,14,14h0a14,14,0,0,1-14,14H96.53a14,14,0,0,1-14-14h0A14,14,0,0,1,96.53,417.77Zm57.61,62.05H290a14,14,0,0,1,14,14h0a14,14,0,0,1-14,14H154.14a14,14,0,0,1-14-14h0A14,14,0,0,1,154.14,479.82ZM129.5,231.59H372.22a14,14,0,0,1,14,14h0a14,14,0,0,1-14,14H129.5a14,14,0,0,1-14-14h0A14,14,0,0,1,129.5,231.59Zm-45.85,0h0a14,14,0,1,1-14,14A14,14,0,0,1,83.65,231.59ZM14,293.65h0a14,14,0,1,1-14,14A14,14,0,0,1,14,293.65ZM48.44,417.77h0a14,14,0,1,1-14,14A14,14,0,0,1,48.44,417.77Zm64.47,62.05h0a14,14,0,1,1-14,14A14,14,0,0,1,112.91,479.82ZM59.77,293.65H317.2a14,14,0,0,1,14,14h0a14,14,0,0,1-14,14H59.77a14,14,0,0,1-14-14h0A14,14,0,0,1,59.77,293.65Zm753-161.29a798.7,798.7,0,0,0,86.72-14.42v.32c-2.4,50.39-40.9,91.24-86,91.24-38,0-68.56-29-75.78-68.34-52.81-83.59-11-101.81,48.74-127,59-24.88,87.62-21.94,107.78,49.74,62.73-15.39,107.47-3.9,26,32C893.83,107.51,848.77,121.41,812.77,132.36ZM418.84,293.17c80.43-74.85,210-81.44,334.57-73.36l94,6.09c64.22,4.17,84,50.36,59.86,100.44l0,.11c22,27.1,46,48.83,87.56,50.79,22,1,44.22-5,65.62-16.86l-15.7,2.07a41.58,41.58,0,0,1-46.53-35.66L973.72,141.85a41.58,41.58,0,0,1,35.66-46.54l243.08-32.13A41.58,41.58,0,0,1,1299,98.84l24.45,185a41.6,41.6,0,0,1-30.51,45.51c4.6,20.35.9,48-47.49,57.46q-10.67,2.08-20.17,4.16c-57.83,45.59-149.5,84-230.47,77-79.09-6.83-127.14-59.45-175.2-122.79,0,0,11.87,47.71,39.43,81.23L803.41,541.63c114.07,63.64,190.82,178.17,178.1,323.79,36.87,2.19,73.5,14.37,89.32,30.79,11.28,11.71,13.69,35.41-5.25,40l-137,33.09h0a186.15,186.15,0,0,1-7.09-31.14C905.6,885.47,856.32,779,709.67,722.43A563.73,563.73,0,0,0,742,652.19c-29.29,44.32-97.58,119.18-233.47,141.49-116.44,19.12-173.31-33.65-200.36-80-40.64,5.13-89.29-4.36-91.26-10.61-2.21-7,4.07-29.94,36.22-48.41S340,619.15,340,619.15a153.27,153.27,0,0,1,17,28.33c18.34,19,57.73,40.8,129.94,3.07,38.49-20.11,90.06-96.15,115.86-157.5l-35.54-13.26L687.68,271.22,650,302.08a590.21,590.21,0,0,0-66.6,12.79C541.22,325.56,480,357.45,470.93,404.8,502.68,427,539,462.16,503.42,496.75c10.26,83.64-74.68,75.27-119.68,33.65C317.77,469.4,363.4,344.76,418.84,293.17Z"/></clipPath><linearGradient id="linear-gradient" x1="1053.04" y1="136" x2="421.39" y2="709.44" gradientUnits="userSpaceOnUse"><stop offset="0" stop-color="#d60b54"/><stop offset="0.47" stop-color="#e80e16"/><stop offset="1" stop-color="#ff8419"/></linearGradient></defs><g id="Layer_2" data-name="Layer 2"><g id="Layer_1-2" data-name="Layer 1"><g class="cls-2"><rect class="cls-3" width="1326.2" height="980.01"/></g></g></g></svg>