<svg xmlns="http://www.w3.org/2000/svg" viewBox="0 0 894.46 654.92"><defs><style>.cls-1{fill:#fdfdfd;fill-rule:evenodd;}</style></defs><g id="Layer_2" data-name="Layer 2"><g id="Layer_1-2" data-name="Layer 1"><path class="cls-1" d="M104.15,240.34h91.79a9.45,9.45,0,0,1,0,18.9H104.15a9.45,9.45,0,0,1,0-18.9M65.22,282.28H196.93a9.47,9.47,0,0,1,9.45,9.44h0a9.47,9.47,0,0,1-9.45,9.45H65.22a9.47,9.47,0,0,1-9.44-9.45h0A9.47,9.47,0,0,1,65.22,282.28Zm38.93,41.93h91.79a9.45,9.45,0,0,1,0,18.89H104.15a9.45,9.45,0,1,1,0-18.89ZM87.5,156.48h164a9.47,9.47,0,0,1,9.44,9.45h0a9.47,9.47,0,0,1-9.44,9.44H87.5a9.47,9.47,0,0,1-9.44-9.44h0A9.47,9.47,0,0,1,87.5,156.48Zm-31,0h0a9.45,9.45,0,1,1-9.44,9.45A9.47,9.47,0,0,1,56.52,156.48ZM9.44,198.42h0A9.44,9.44,0,1,1,0,207.86,9.47,9.47,0,0,1,9.44,198.42Zm23.29,83.86h0a9.45,9.45,0,1,1-9.45,9.44A9.47,9.47,0,0,1,32.73,282.28Zm43.56,41.93h0a9.45,9.45,0,1,1-9.44,9.44A9.47,9.47,0,0,1,76.29,324.21ZM40.39,198.42H214.32a9.47,9.47,0,0,1,9.45,9.44h0a9.47,9.47,0,0,1-9.45,9.44H40.39a9.47,9.47,0,0,1-9.45-9.44h0A9.47,9.47,0,0,1,40.39,198.42Zm508.78-109a537.71,537.71,0,0,0,58.59-9.74v.21c-1.62,34.05-27.63,61.65-58.09,61.65-25.68,0-46.33-19.61-51.21-46.17C462.77,38.9,491,26.59,531.39,9.56c39.86-16.81,59.2-14.82,72.82,33.61,42.39-10.4,72.61-2.64,17.57,21.61C603.94,72.64,573.49,82,549.17,89.43ZM283,198.09c54.35-50.57,141.86-55,226.06-49.57l63.51,4.12c43.39,2.81,56.77,34,40.45,67.86l0,.08c14.9,18.3,31.08,33,59.17,34.31,14.87.71,29.88-3.36,44.33-11.39l-10.6,1.4a28.09,28.09,0,0,1-31.44-24.1l-16.52-125A28.09,28.09,0,0,1,682,64.4L846.26,42.69A28.09,28.09,0,0,1,877.7,66.78l16.52,125A28.12,28.12,0,0,1,873.6,222.5c3.11,13.75.61,32.45-32.09,38.82q-7.2,1.41-13.62,2.82c-39.08,30.8-101,56.74-155.73,52-53.44-4.62-85.91-40.17-118.37-83,0,0,8,32.24,26.63,54.88L542.84,366c77.08,43,128.94,120.38,120.34,218.77,24.91,1.48,49.66,9.71,60.35,20.81,7.62,7.91,9.25,23.92-3.55,27l-92.59,22.36h0a126.18,126.18,0,0,1-4.79-21c-10.7-35.58-44-107.5-143.09-145.74a379.82,379.82,0,0,0,21.85-47.46c-19.8,29.94-65.93,80.53-157.76,95.6-78.67,12.92-117.1-22.74-135.37-54.07-27.47,3.46-60.33-2.95-61.67-7.17-1.49-4.75,2.75-20.23,24.48-32.71s58.68-24,58.68-24a104,104,0,0,1,11.51,19.15c12.4,12.81,39,27.56,87.8,2.07,26-13.59,60.85-65,78.28-106.42l-24-9,81.36-140.92L439.2,204.11a398.54,398.54,0,0,0-45,8.64c-28.5,7.23-69.85,28.77-76,60.76,21.45,15,46,38.76,21.94,62.13,6.94,56.51-50.45,50.86-80.86,22.74C214.71,317.16,245.54,233,283,198.09Z"/></g></g></svg>